# xmcd
#
# Track frame offsets:
#	150
#	15259
#	33883
#	47030
#	61179
#	77298
#	91409
#	101921
#	117067
#	129009
#	150940
#	164234
#	179832
#	194547
#	207219
#	219432
#	237760
#
# Disc length: 3380 seconds
#
# Revision: 1
# Processed by: cddbd v1.5.2PL0 Copyright (c) Steve Scherf et al.
# Submitted via: audiograbber 1.83.01
#
DISCID=d40d3211
DTITLE=Köbes Undergrount - Live - Die Vierte
DYEAR=2015
DGENRE=Mix
TTITLE0=Die toten Lederhosen
TTITLE1=Eifel ist cool
TTITLE2=Türkischer Schützenkönig
TTITLE3=Capitano
TTITLE4=Spielerfrau
TTITLE5=Mein erster Lehrer
TTITLE6=Messi und Trottel
TTITLE7=Immer die Jungfrau für mich
TTITLE8=Ein Hof in Köln
TTITLE9=De Böösch
TTITLE10=Falsches Duo
TTITLE11=Laubbläser
TTITLE12=Baumarkt
TTITLE13=Wenn du mich bützt
TTITLE14=Nacktbilder
TTITLE15=Ehrenfeld
TTITLE16=Tanz meinen Namen
EXTD=
EXTT0=
EXTT1=
EXTT2=
EXTT3=
EXTT4=
EXTT5=
EXTT6=
EXTT7=
EXTT8=
EXTT9=
EXTT10=
EXTT11=
EXTT12=
EXTT13=
EXTT14=
EXTT15=
EXTT16=
PLAYORDER=
